<svg width="40" height="40" viewBox="0 0 40 40" fill="none" xmlns="http://www.w3.org/2000/svg">
<path d="M33.25 4.5H6.75C5.5095 4.5 4.5 5.50925 4.5 6.75V16.25C4.5 17.4908 5.5095 18.5 6.75 18.5H23C23.1326 18.5 23.2598 18.4473 23.3536 18.3536C23.4473 18.2598 23.5 18.1326 23.5 18C23.5 17.8674 23.4473 17.7402 23.3536 17.6464C23.2598 17.5527 23.1326 17.5 23 17.5H9.25V14.5C9.25 13.9485 9.6985 13.5 10.25 13.5H22.75C22.8826 13.5 23.0098 13.4473 23.1036 13.3536C23.1973 13.2598 23.25 13.1326 23.25 13C23.25 12.8674 23.1973 12.7402 23.1036 12.6464C23.0098 12.5527 22.8826 12.5 22.75 12.5H10.25C9.14725 12.5 8.25 13.3973 8.25 14.5V17.5H6.75C6.06075 17.5 5.5 16.9392 5.5 16.25V6.75C5.5 6.06075 6.06075 5.5 6.75 5.5H33.25C33.9393 5.5 34.5 6.06075 34.5 6.75V10.5C34.5 10.6326 34.5527 10.7598 34.6465 10.8536C34.7402 10.9473 34.8674 11 35 11C35.1326 11 35.2598 10.9473 35.3536 10.8536C35.4473 10.7598 35.5 10.6326 35.5 10.5V6.75C35.5 5.50925 34.4905 4.5 33.25 4.5Z" fill="white"/>
<path d="M10.75 15C10.6174 15 10.4902 15.0527 10.3964 15.1464C10.3027 15.2402 10.25 15.3674 10.25 15.5C10.25 15.6326 10.3027 15.7598 10.3964 15.8536C10.4902 15.9473 10.6174 16 10.75 16H22.5C22.6326 16 22.7598 15.9473 22.8536 15.8536C22.9473 15.7598 23 15.6326 23 15.5C23 15.3674 22.9473 15.2402 22.8536 15.1464C22.7598 15.0527 22.6326 15 22.5 15H10.75ZM9.25 6.5C8.6985 6.5 8.25 6.9485 8.25 7.5V8.75C8.25 9.3015 8.6985 9.75 9.25 9.75H13.75C14.3015 9.75 14.75 9.3015 14.75 8.75V7.5C14.75 6.9485 14.3015 6.5 13.75 6.5H9.25ZM9.25 8.75V7.5H13.75L13.7505 8.75H9.25ZM31.75 8C31.75 7.5865 31.4135 7.25 31 7.25C30.5865 7.25 30.25 7.5865 30.25 8C30.25 8.4135 30.5865 8.75 31 8.75C31.4135 8.75 31.75 8.4135 31.75 8ZM28.5 8.75C28.9135 8.75 29.25 8.4135 29.25 8C29.25 7.5865 28.9135 7.25 28.5 7.25C28.0865 7.25 27.75 7.5865 27.75 8C27.75 8.4135 28.0865 8.75 28.5 8.75ZM26.75 8C26.75 7.5865 26.4135 7.25 26 7.25C25.5865 7.25 25.25 7.5865 25.25 8C25.25 8.4135 25.5865 8.75 26 8.75C26.4135 8.75 26.75 8.4135 26.75 8Z" fill="white"/>
<path d="M35.5 15.25C35.5 12.913 34.103 10.8265 31.9408 9.93455C31.8648 9.9032 31.7823 9.89106 31.7005 9.89919C31.6187 9.90733 31.5402 9.93549 31.4719 9.9812C31.4036 10.0269 31.3476 10.0887 31.3089 10.1612C31.2702 10.2337 31.25 10.3146 31.25 10.3968V15H28.25V10.3965C28.25 10.3144 28.2298 10.2335 28.1911 10.161C28.1524 10.0885 28.0964 10.0266 28.0281 9.98095C27.9598 9.93524 27.8813 9.90708 27.7995 9.89894C27.7177 9.89081 27.6352 9.90295 27.5592 9.9343C26.5049 10.3664 25.6032 11.1028 24.9693 12.0496C24.3353 12.9964 23.9979 14.1106 24 15.25C23.9978 16.3318 24.3019 17.392 24.877 18.3082C25.4522 19.2244 26.2749 19.9591 27.25 20.4273V21.75H23.9245C23.407 21.7487 22.8943 21.8499 22.4162 22.048C21.9381 22.246 21.504 22.5369 21.139 22.9038C20.9537 23.0901 20.7333 23.2377 20.4905 23.3383C20.2478 23.4388 19.9875 23.4902 19.7248 23.4895H18.5V22.75C18.5 22.1985 18.0515 21.75 17.5 21.75H5C4.86739 21.75 4.74021 21.8027 4.64645 21.8965C4.55268 21.9903 4.5 22.1174 4.5 22.25C4.5 22.3827 4.55268 22.5098 4.64645 22.6036C4.74021 22.6974 4.86739 22.75 5 22.75H17.5V31.75H5C4.86739 31.75 4.74021 31.8027 4.64645 31.8965C4.55268 31.9903 4.5 32.1174 4.5 32.25C4.5 32.3827 4.55268 32.5098 4.64645 32.6036C4.74021 32.6974 4.86739 32.75 5 32.75H17.5C18.0515 32.75 18.5 32.3015 18.5 31.75V31H19.7145C20.2488 31 20.751 31.208 21.1392 31.5963C21.5042 31.9632 21.9382 32.2541 22.4163 32.4522C22.8944 32.6502 23.407 32.7514 23.9245 32.75H27.25V32.9315C27.25 34.284 28.2755 35.41 29.5845 35.4945C29.6407 35.4983 29.6968 35.5 29.7525 35.5C30.39 35.5 30.9907 35.2633 31.4595 34.8241C31.7086 34.5898 31.9071 34.3072 32.0431 33.9935C32.179 33.6798 32.2494 33.3417 32.25 32.9998V32.7498H32.75C33.5772 32.7498 34.25 32.077 34.25 31.2498V24.75C34.25 24.0893 33.8202 23.5283 33.2257 23.3286C33.24 23.2208 33.25 23.1118 33.25 23V22.75C33.25 22.1985 32.8015 21.75 32.25 21.75V20.4273C33.2251 19.959 34.0478 19.2244 34.6229 18.3082C35.1981 17.392 35.5021 16.3318 35.5 15.25ZM23.9245 31.75C23.1395 31.75 22.4013 31.4443 21.8358 30.8788C21.5578 30.5993 21.2273 30.3778 20.8632 30.2269C20.499 30.0761 20.1086 29.999 19.7145 30H18.5V24.4895H19.7248C20.5263 24.4895 21.2795 24.1773 21.846 23.6108C22.1184 23.3371 22.4423 23.1201 22.7991 22.9723C23.1558 22.8246 23.5384 22.749 23.9245 22.75H32.25V23C32.25 23.8273 31.5772 24.5 30.75 24.5H27.75C27.6174 24.5 27.4902 24.5527 27.3964 24.6465C27.3027 24.7403 27.25 24.8674 27.25 25C27.25 26.3785 26.1285 27.5 24.75 27.5C24.1886 27.5021 23.6431 27.3132 23.2033 26.9643C23.1517 26.9236 23.0926 26.8935 23.0294 26.8757C22.9662 26.8579 22.9001 26.8527 22.8349 26.8604C22.7697 26.8681 22.7067 26.8885 22.6494 26.9206C22.5921 26.9527 22.5417 26.9957 22.501 27.0473C22.4603 27.0989 22.4302 27.1579 22.4124 27.2211C22.3946 27.2843 22.3894 27.3504 22.3971 27.4156C22.4048 27.4808 22.4252 27.5439 22.4573 27.6012C22.4894 27.6585 22.5324 27.7089 22.584 27.7495C23.2 28.2382 23.9638 28.5028 24.75 28.5C25.729 28.5 26.6143 28.0948 27.25 27.4448V31.75H23.9245ZM31.25 33C31.2508 33.2054 31.2091 33.4087 31.1274 33.5971C31.0457 33.7855 30.9259 33.955 30.7755 34.0948C30.6257 34.236 30.4483 34.3446 30.2545 34.4137C30.0606 34.4829 29.8546 34.5112 29.6493 34.4968C28.8647 34.446 28.25 33.7585 28.25 32.9315V25.5H29V31.25C29 32.0773 29.6728 32.75 30.5 32.75H31.25V33ZM33.25 24.75V31.25C33.25 31.5258 33.0257 31.75 32.75 31.75H30.5C30.2243 31.75 30 31.5258 30 31.25V25.5H30.75C31.6628 25.5 32.4603 25.0068 32.8968 24.2745C32.9987 24.3057 33.088 24.3686 33.1516 24.4542C33.2151 24.5398 33.2496 24.6435 33.25 24.75ZM31.5592 19.6411C31.4677 19.6788 31.3895 19.7429 31.3344 19.8252C31.2794 19.9075 31.25 20.0043 31.25 20.1033V21.75H28.25V20.1035C28.25 20.0045 28.2206 19.9078 28.1656 19.8255C28.1105 19.7432 28.0323 19.6791 27.9408 19.6413C27.0697 19.2844 26.3248 18.6761 25.801 17.894C25.2772 17.1118 24.9983 16.1914 25 15.25C25 13.5813 25.8625 12.0673 27.25 11.2113V15C27.25 15.5515 27.6985 16 28.25 16H31.25C31.8015 16 32.25 15.5515 32.25 15V11.2111C33.6375 12.0671 34.5 13.581 34.5 15.2498C34.5017 16.1911 34.2229 17.1116 33.6991 17.8938C33.1753 18.6759 32.4303 19.2842 31.5592 19.6411Z" fill="white"/>
</svg>
