<svg width="40" height="40" viewBox="0 0 40 40" fill="none" xmlns="http://www.w3.org/2000/svg">
<path fill-rule="evenodd" clip-rule="evenodd" d="M34.9019 23.7806L32.0223 24.7164C31.9346 24.7451 31.8555 24.7954 31.7924 24.8628C31.7293 24.9302 31.6843 25.0123 31.6614 25.1017C31.3795 26.1965 30.9443 27.2459 30.3686 28.2189C30.3216 28.2983 30.2954 28.3883 30.2924 28.4805C30.2894 28.5727 30.3097 28.6642 30.3515 28.7465L31.7271 31.4454L29.3484 33.8242L26.6495 32.4492C26.5672 32.4073 26.4757 32.3868 26.3835 32.3897C26.2912 32.3926 26.2012 32.4188 26.1218 32.4658C25.1488 33.0416 24.0992 33.4768 23.0043 33.7583C22.9148 33.7814 22.8326 33.8266 22.7653 33.8899C22.6979 33.9531 22.6476 34.0323 22.6189 34.1201L21.6837 36.9997L18.3199 36.9999L17.3842 34.1208C17.3557 34.0329 17.3054 33.9536 17.238 33.8904C17.1706 33.8271 17.0883 33.7819 16.9988 33.759C15.904 33.4776 14.8547 33.0423 13.8821 32.4662C13.8025 32.4192 13.7123 32.393 13.6199 32.3901C13.5275 32.3872 13.4359 32.4077 13.3535 32.4496L10.6546 33.8248L8.27674 31.4461L9.6513 28.7472C9.69315 28.665 9.71361 28.5735 9.71078 28.4813C9.70796 28.3891 9.68194 28.299 9.63514 28.2195C9.05896 27.2468 8.62364 26.1973 8.34218 25.1024C8.31916 25.0129 8.27393 24.9307 8.21068 24.8633C8.14743 24.7959 8.0682 24.7456 7.98034 24.717L5.10114 23.7814V22.6485L10.0069 22.6484C10.3949 27.8599 14.7453 31.9141 20.0017 31.9141C25.2569 31.9139 29.6083 27.86 29.996 22.6479L34.9018 22.6477L34.9019 23.7806ZM35.4503 21.5507L29.4729 21.5509C29.3296 21.5509 29.1919 21.6071 29.0895 21.7074C28.9871 21.8076 28.928 21.944 28.9249 22.0873C28.8211 26.9007 24.8183 30.8173 20.0016 30.8174C15.185 30.8175 11.1815 26.9012 11.0775 22.0877C11.0743 21.9444 11.0152 21.8079 10.9126 21.7076C10.8101 21.6074 10.6724 21.5512 10.529 21.5513L4.55258 21.5514C4.40714 21.5515 4.26768 21.6093 4.16484 21.7122C4.062 21.815 4.00418 21.9545 4.0041 22.0999L4.00418 24.1801C4.00413 24.2959 4.04077 24.4087 4.10885 24.5024C4.17692 24.596 4.27292 24.6657 4.38306 24.7013L7.35834 25.6679C7.63835 26.66 8.03464 27.6156 8.53898 28.5147L7.11818 31.3038C7.06549 31.407 7.04686 31.5242 7.06496 31.6386C7.08306 31.753 7.13695 31.8587 7.2189 31.9405L10.161 34.8825C10.2428 34.9645 10.3485 35.0184 10.4629 35.0365C10.5774 35.0546 10.6946 35.0359 10.7977 34.9832L13.5867 33.5622C14.4855 34.0666 15.4408 34.4628 16.4327 34.7427L17.3994 37.718C17.4354 37.8281 17.5052 37.9241 17.599 37.9921C17.6928 38.0601 17.8057 38.0968 17.9215 38.0969L22.082 38.0968C22.1978 38.0968 22.3107 38.0601 22.4044 37.9921C22.4981 37.924 22.5679 37.828 22.6037 37.7179L23.5703 34.7417C24.562 34.4618 25.5172 34.0658 26.4161 33.5619L29.2061 34.9827C29.3091 35.0353 29.4262 35.0539 29.5404 35.0358C29.6547 35.0177 29.7602 34.9639 29.8419 34.882L32.7843 31.9399C32.8661 31.8579 32.9198 31.7523 32.938 31.6379C32.9562 31.5236 32.9378 31.4065 32.8855 31.3032L31.4637 28.5141C31.9684 27.6152 32.3648 26.6595 32.6447 25.6673L35.6195 24.7005C35.7296 24.6649 35.8257 24.5953 35.8939 24.5016C35.962 24.408 35.9988 24.2952 35.9988 24.1793L35.9987 22.0991C35.9987 21.9537 35.9408 21.8142 35.838 21.7114C35.7352 21.6086 35.5957 21.5508 35.4503 21.5507ZM26.28 18.6205C26.2823 18.6186 26.2837 18.6163 26.2855 18.614C26.8234 17.9897 27.1787 17.2693 27.3506 16.4773C29.7935 16.9814 32.1251 16.9093 34.6254 16.2346C31.5638 18.686 29.0284 19.0732 26.28 18.6205ZM19.915 19.8844C19.8817 19.883 19.848 19.883 19.8143 19.8807C17.509 19.7513 16.3751 17.8255 16.4466 15.9901C16.5398 13.6131 18.0378 13.2687 19.023 11.0192C19.5738 12.3804 19.8903 13.8161 19.9671 15.3025C19.9859 15.6736 20.3643 15.9201 20.7115 15.7868C21.6379 15.4301 22.2935 14.8765 22.6724 14.1334C22.9787 14.7045 23.2011 15.2169 23.2745 15.7363C23.4594 17.0384 23.1937 18.122 22.5071 18.8687C21.8615 19.5721 20.9464 19.9031 19.915 19.8844ZM14.3609 17.6185C14.8243 18.1897 15.4625 18.6721 16.224 19.043C15.6155 18.1656 15.3063 17.0801 15.3507 15.9467C15.4519 13.3724 16.8676 12.7201 17.7704 11.081C18.0869 10.5057 18.2939 9.92631 18.3669 9.40831C18.4414 8.88407 19.1459 8.76055 19.3946 9.22671C20.261 10.8536 20.7984 12.5957 20.9958 14.4171C21.5844 14.0179 21.8852 13.4588 21.9503 12.6751C21.9947 12.1424 22.7023 11.9831 22.9711 12.4449C23.601 13.5273 24.2087 14.5097 24.3611 15.5819C24.6023 17.2846 24.1712 18.4417 23.6555 19.1861C24.3856 18.8575 25.0034 18.4227 25.4543 17.8982C26.2699 16.9519 26.5452 15.7556 26.2731 14.344C26.0767 13.3201 25.2787 12.3137 24.2699 11.0393C23.6743 10.2876 22.9997 9.43551 22.3371 8.43567C21.1726 6.67847 20.3727 5.23775 19.8889 4.01463C19.4038 5.23223 18.6053 6.66967 17.4433 8.42423C16.7743 9.43431 16.0987 10.2785 15.5027 11.0229C14.5107 12.2632 13.727 13.2418 13.5533 14.27C13.3355 15.5623 13.6077 16.6884 14.3609 17.6185ZM4.86122 17.4445C7.14938 14.9013 9.81682 13.4069 12.8212 12.9863C12.4339 13.8241 12.3243 14.7467 12.4138 15.639C10.0327 15.7962 7.50234 16.4007 4.86122 17.4445ZM8.08298 9.34159C10.7051 6.59359 13.8902 5.52103 17.5821 6.14527C17.2418 6.72007 16.7883 7.43927 16.3572 8.07215C13.8112 7.80375 11.0379 8.23031 8.08298 9.34159ZM31.4291 8.82959C29.1119 10.5587 27.2086 10.7782 25.2143 10.4659C25.1857 10.4304 25.1573 10.3946 25.1292 10.3587C24.6237 9.71919 24.0581 9.00671 23.5008 8.19951C26.0852 9.13607 28.537 9.50519 31.4291 8.82959ZM37.4042 14.5609C37.3342 14.4557 37.2301 14.3778 37.1093 14.3406C36.9886 14.3034 36.8587 14.3091 36.7416 14.3566C33.4115 15.711 30.5315 16.0322 27.4698 15.3821C27.4764 13.9188 27.0615 12.9425 26.1334 11.663C29.0447 11.8044 31.428 10.6373 34.1507 7.88727C34.5671 7.46671 34.1028 6.77063 33.5541 6.99367C29.2223 8.75567 26.1911 8.19751 22.4723 6.61271C21.4039 4.87351 20.7778 3.51879 20.5259 2.40935C20.3738 1.73487 19.4068 1.73423 19.2529 2.40799C19.0769 3.18015 18.7174 4.07375 18.1519 5.13471C14.6211 4.44535 9.74866 4.88127 5.79578 10.398C5.46514 10.858 5.97162 11.4525 6.47506 11.213C9.7733 9.66271 12.8395 8.95799 15.6083 9.11223C14.9268 10.0112 14.1051 10.9673 13.5161 11.8089C9.22674 12.1389 5.55746 14.3898 2.60914 18.5051C2.2789 18.9662 2.78282 19.5583 3.28794 19.3211C6.60466 17.762 9.74898 16.8895 12.6415 16.7236C13.5007 19.3413 16.4188 20.7751 19.453 20.9625L19.4531 22.802L16.4062 22.8021L14.7099 21.1058C14.6068 21.0031 14.4673 20.9454 14.3217 20.9454C14.1762 20.9454 14.0366 21.0031 13.9336 21.1058C13.8309 21.2088 13.7732 21.3483 13.7732 21.4937C13.7732 21.6392 13.8309 21.7787 13.9336 21.8817L15.4031 23.3505L13.9337 24.82C13.7198 25.0339 13.7198 25.3814 13.9337 25.5958C14.1481 25.8093 14.4955 25.8097 14.71 25.5958L16.4063 23.8991L19.4531 23.899L19.4532 26.5878L17.3929 28.6477C17.1795 28.8621 17.1795 29.2096 17.3929 29.4236C17.4438 29.4746 17.5043 29.515 17.5709 29.5426C17.6374 29.5702 17.7088 29.5844 17.7808 29.5844C17.8529 29.5844 17.9242 29.5702 17.9908 29.5426C18.0573 29.515 18.1178 29.4746 18.1687 29.4236L20.0017 27.5905L21.8343 29.4235C21.8853 29.4745 21.9458 29.5149 22.0123 29.5424C22.0789 29.57 22.1502 29.5842 22.2223 29.5842C22.2943 29.5842 22.3656 29.57 22.4322 29.5424C22.4988 29.5149 22.5592 29.4745 22.6102 29.4235C22.6612 29.3726 22.7016 29.3121 22.7292 29.2456C22.7568 29.179 22.771 29.1076 22.771 29.0356C22.771 28.9635 22.7568 28.8922 22.7292 28.8256C22.7016 28.7591 22.6612 28.6986 22.6102 28.6477L20.5503 26.5878L20.5502 23.899L23.5975 23.8989L25.2939 25.5956C25.5073 25.809 25.8548 25.8095 26.0692 25.5956C26.2831 25.3812 26.2831 25.0337 26.0692 24.8197L24.5998 23.3504L26.0691 21.8814C26.1719 21.7785 26.2296 21.639 26.2296 21.4935C26.2296 21.3481 26.1719 21.2085 26.0691 21.1056C25.9663 21.0029 25.8268 20.9452 25.6815 20.9452C25.5361 20.9452 25.3966 21.0029 25.2938 21.1056L23.5975 22.8019L20.5502 22.802L20.5501 20.9773C22.3767 20.9139 24.0286 20.4051 25.2548 19.541C27.2979 19.9799 29.1431 20.0477 31.0631 19.4609C33.1234 18.8311 35.1177 17.4929 37.3379 15.2509C37.4267 15.1611 37.4819 15.0434 37.494 14.9177C37.5061 14.792 37.4743 14.6659 37.4042 14.5609Z" fill="white"/>
</svg>
