<svg width="18" height="14" viewBox="0 0 18 14" fill="none" xmlns="http://www.w3.org/2000/svg">
<path d="M17.8461 6.57491L12.4464 0.211273C12.3312 0.0763635 12.1704 0 12 0H8.4002C8.2843 0.000133208 8.17091 0.0357527 8.07363 0.10258C7.97636 0.169408 7.89934 0.264602 7.85183 0.376727C7.75584 0.607091 7.79544 0.875636 7.95383 1.06145L12.9923 7L7.95383 12.9373C7.79544 13.1244 7.75464 13.3929 7.85183 13.622C7.94903 13.8524 8.16381 14 8.4002 14H12C12.1704 14 12.3312 13.9224 12.4464 13.79L17.8461 7.42636C18.0513 7.18455 18.0513 6.81545 17.8461 6.57491Z" fill="#FD5523"/>
<path d="M10.0465 6.57491L4.64681 0.211273C4.53162 0.0763635 4.37083 0 4.20044 0H0.600641C0.484744 0.000133208 0.371347 0.0357527 0.274072 0.10258C0.176797 0.169408 0.0997799 0.264602 0.0522718 0.376727C-0.0437228 0.607091 -0.00412504 0.875636 0.154266 1.06145L5.19278 7L0.154266 12.9373C-0.00412504 13.1244 -0.0449227 13.3929 0.0522718 13.622C0.149466 13.8524 0.364254 14 0.600641 14H4.20044C4.37083 14 4.53162 13.9224 4.64681 13.79L10.0465 7.42636C10.2517 7.18455 10.2517 6.81545 10.0465 6.57491Z" fill="#FD5523"/>
</svg>
