<svg width="40" height="40" viewBox="0 0 40 40" fill="none" xmlns="http://www.w3.org/2000/svg">
<g clip-path="url(#clip0_2140_94)">
<path d="M14.1548 5.56088C13.4698 4.17585 12.9298 3.08247 14.1214 1.29415C14.3765 0.910783 14.2715 0.394132 13.8898 0.139126C13.5114 -0.114239 12.9914 -0.0125178 12.7348 0.370772C11.0081 2.95747 11.9248 4.81087 12.6614 6.29926C13.3498 7.69265 13.8481 8.69931 12.7348 10.371C12.4781 10.7544 12.5831 11.271 12.9648 11.526C13.1019 11.6177 13.2632 11.6665 13.4282 11.666C13.6965 11.666 13.9598 11.536 14.1198 11.2944C15.7682 8.82431 14.8748 7.01427 14.1548 5.56088ZM20.795 5.56088C20.1083 4.17585 19.5683 3.08247 20.7599 1.29415C21.015 0.910783 20.91 0.394132 20.5283 0.139126C20.1499 -0.114239 19.6283 -0.0125178 19.3733 0.370772C17.6482 2.95919 18.5649 4.81251 19.2999 6.3009C19.9883 7.69429 20.4866 8.70095 19.3733 10.371C19.1183 10.7544 19.2233 11.271 19.6049 11.526C19.7414 11.6177 19.9022 11.6665 20.0666 11.666C20.3349 11.666 20.5982 11.536 20.7599 11.2944C22.4083 8.82431 21.515 7.01427 20.795 5.56088ZM27.4335 5.56088C26.7468 4.17585 26.2068 3.08247 27.3985 1.29415C27.6535 0.910783 27.5485 0.394132 27.1668 0.139126C26.7884 -0.114239 26.2668 -0.0125178 26.0118 0.370772C24.2867 2.95919 25.2034 4.81251 25.9384 6.3009C26.6268 7.69429 27.1251 8.70095 26.0118 10.371C25.7568 10.7544 25.8618 11.271 26.2434 11.526C26.3799 11.6177 26.5407 11.6665 26.7051 11.666C26.9751 11.666 27.2384 11.536 27.3985 11.2944C29.0468 8.82431 28.1535 7.01427 27.4335 5.56088ZM34.167 13.3327H5.83299C3.53458 13.3327 1.66626 15.2027 1.66626 17.4994V32.4997C1.66626 34.7964 3.53466 36.6665 5.83299 36.6665H34.167C36.4654 36.6665 38.3337 34.7964 38.3337 32.4997V17.4994C38.3337 15.2027 36.4653 13.3327 34.167 13.3327ZM36.667 32.4998C36.667 33.8782 35.5453 34.9999 34.167 34.9999H5.83299C4.4546 34.9999 3.33294 33.8782 3.33294 32.4998V17.4995C3.33294 16.1211 4.4546 14.9994 5.83299 14.9994H34.167C35.5453 14.9994 36.667 16.1211 36.667 17.4995V32.4998Z" fill="white"/>
<path d="M7.49964 16.666C7.03963 16.666 6.66626 17.0394 6.66626 17.4994V32.4997C6.66626 32.9597 7.03963 33.3331 7.49964 33.3331C7.95965 33.3331 8.33301 32.9597 8.33301 32.4997V17.4994C8.33301 17.0394 7.95965 16.666 7.49964 16.666ZM12.4997 16.666C12.0397 16.666 11.6664 17.0394 11.6664 17.4994V32.4997C11.6664 32.9597 12.0397 33.3331 12.4997 33.3331C12.9598 33.3331 13.3331 32.9597 13.3331 32.4997V17.4994C13.3331 17.0394 12.9598 16.666 12.4997 16.666ZM17.4999 16.666C17.0398 16.666 16.6665 17.0394 16.6665 17.4994V32.4997C16.6665 32.9597 17.0398 33.3331 17.4999 33.3331C17.9599 33.3331 18.3332 32.9597 18.3332 32.4997V17.4994C18.3332 17.0394 17.9599 16.666 17.4999 16.666ZM22.5 16.666C22.0399 16.666 21.6666 17.0394 21.6666 17.4994V32.4997C21.6666 32.9597 22.0399 33.3331 22.5 33.3331C22.96 33.3331 23.3333 32.9597 23.3333 32.4997V17.4994C23.3333 17.0394 22.96 16.666 22.5 16.666ZM27.5001 16.666C27.0401 16.666 26.6667 17.0394 26.6667 17.4994V32.4997C26.6667 32.9597 27.0401 33.3331 27.5001 33.3331C27.9601 33.3331 28.3334 32.9597 28.3334 32.4997V17.4994C28.3334 17.0394 27.9601 16.666 27.5001 16.666ZM32.5002 16.666C32.0402 16.666 31.6668 17.0394 31.6668 17.4994V32.4997C31.6668 32.9597 32.0402 33.3331 32.5002 33.3331C32.9602 33.3331 33.3336 32.9597 33.3336 32.4997V17.4994C33.3336 17.0394 32.9602 16.666 32.5002 16.666ZM9.16639 34.9998C8.70638 34.9998 8.33301 35.3731 8.33301 35.8331V39.1666C8.33301 39.6266 8.70638 40 9.16639 40C9.6264 40 9.99977 39.6266 9.99977 39.1666V35.8331C9.99969 35.3731 9.6264 34.9998 9.16639 34.9998ZM30.8335 34.9998C30.3735 34.9998 30.0001 35.3731 30.0001 35.8331V39.1666C30.0001 39.6266 30.3735 40 30.8335 40C31.2935 40 31.6669 39.6266 31.6669 39.1666V35.8331C31.6669 35.3731 31.2935 34.9998 30.8335 34.9998Z" fill="white"/>
</g>
<defs>
<clipPath id="clip0_2140_94">
<rect width="40" height="40" fill="white"/>
</clipPath>
</defs>
</svg>
