<svg width="40" height="40" viewBox="0 0 40 40" fill="none" xmlns="http://www.w3.org/2000/svg">
<path d="M8.61781 4.62379C9.10406 3.81941 10.2709 3.81941 10.7572 4.62379L14.2847 10.4582C14.3419 10.5529 14.373 10.6612 14.3746 10.772C14.3763 10.8827 14.3485 10.9918 14.2941 11.0883C14.2397 11.1847 14.1607 11.265 14.0651 11.3209C13.9695 11.3768 13.8607 11.4062 13.75 11.4063H11.875V13.9063C11.875 14.072 11.8092 14.231 11.6919 14.3482C11.5747 14.4654 11.4158 14.5313 11.25 14.5313C11.0842 14.5313 10.9253 14.4654 10.8081 14.3482C10.6908 14.231 10.625 14.072 10.625 13.9063V10.7813C10.625 10.6155 10.6908 10.4566 10.8081 10.3393C10.9253 10.2221 11.0842 10.1563 11.25 10.1563H12.6419L9.6875 5.27035L6.73312 10.1563H8.28125C8.44701 10.1563 8.60598 10.2221 8.72319 10.3393C8.8404 10.4566 8.90625 10.6155 8.90625 10.7813V16.7188C8.90625 16.8845 8.8404 17.0435 8.72319 17.1607C8.60598 17.2779 8.44701 17.3438 8.28125 17.3438C8.11549 17.3438 7.95652 17.2779 7.83931 17.1607C7.7221 17.0435 7.65625 16.8845 7.65625 16.7188V11.4063H5.625C5.5142 11.4063 5.40537 11.3769 5.30968 11.321C5.21399 11.2652 5.13488 11.1849 5.08044 11.0884C5.026 10.9918 4.99819 10.8826 4.99987 10.7718C5.00155 10.661 5.03266 10.5527 5.09 10.4579L8.61781 4.62379ZM21.0697 4.62379C20.5834 3.81941 19.4166 3.81941 18.9303 4.62379L15.4031 10.4582C15.3459 10.5529 15.3149 10.6612 15.3132 10.7719C15.3115 10.8826 15.3393 10.9917 15.3936 11.0882C15.448 11.1846 15.527 11.2649 15.6225 11.3208C15.7181 11.3767 15.8268 11.4062 15.9375 11.4063H17.9688V16.7188C17.9688 16.8845 18.0346 17.0435 18.1518 17.1607C18.269 17.2779 18.428 17.3438 18.5938 17.3438C18.7595 17.3438 18.9185 17.2779 19.0357 17.1607C19.1529 17.0435 19.2188 16.8845 19.2188 16.7188V10.7813C19.2188 10.6155 19.1529 10.4566 19.0357 10.3393C18.9185 10.2221 18.7595 10.1563 18.5938 10.1563H17.0456L20 5.27035L22.9544 10.1563H21.5625C21.3967 10.1563 21.2378 10.2221 21.1206 10.3393C21.0033 10.4566 20.9375 10.6155 20.9375 10.7813V13.9063C20.9375 14.072 21.0033 14.231 21.1206 14.3482C21.2378 14.4654 21.3967 14.5313 21.5625 14.5313C21.7283 14.5313 21.8872 14.4654 22.0044 14.3482C22.1217 14.231 22.1875 14.072 22.1875 13.9063V11.4063H24.0625C24.1733 11.4063 24.2821 11.3768 24.3777 11.3209C24.4734 11.265 24.5524 11.1847 24.6068 11.0882C24.6612 10.9917 24.689 10.8825 24.6873 10.7717C24.6856 10.661 24.6545 10.5526 24.5972 10.4579L21.0697 4.62379ZM31.3822 4.62379C30.8959 3.81941 29.7291 3.81941 29.2428 4.62379L25.7156 10.4582C25.6584 10.5529 25.6274 10.6612 25.6257 10.7719C25.624 10.8826 25.6518 10.9917 25.7061 11.0882C25.7605 11.1846 25.8395 11.2649 25.935 11.3208C26.0306 11.3767 26.1393 11.4062 26.25 11.4063H28.2812V16.7188C28.2812 16.8845 28.3471 17.0435 28.4643 17.1607C28.5815 17.2779 28.7405 17.3438 28.9062 17.3438C29.072 17.3438 29.231 17.2779 29.3482 17.1607C29.4654 17.0435 29.5312 16.8845 29.5312 16.7188V10.7813C29.5312 10.6155 29.4654 10.4566 29.3482 10.3393C29.231 10.2221 29.072 10.1563 28.9062 10.1563H27.3581L30.3125 5.27035L33.2669 10.1563H31.875C31.7092 10.1563 31.5503 10.2221 31.4331 10.3393C31.3158 10.4566 31.25 10.6155 31.25 10.7813V13.9063C31.25 14.072 31.3158 14.231 31.4331 14.3482C31.5503 14.4654 31.7092 14.5313 31.875 14.5313C32.0408 14.5313 32.1997 14.4654 32.3169 14.3482C32.4342 14.231 32.5 14.072 32.5 13.9063V11.4063H34.375C34.4858 11.4064 34.5947 11.377 34.6904 11.3211C34.7861 11.2652 34.8652 11.1849 34.9196 11.0884C34.974 10.9918 35.0018 10.8826 35 10.7718C34.9983 10.661 34.9671 10.5526 34.9097 10.4579L31.3822 4.62379ZM8.35938 19.2188C5.98625 19.2188 4.0625 21.1425 4.0625 23.5157C4.0625 25.8888 5.98625 27.8125 8.35938 27.8125H32.1875C33.9134 27.8125 35.3125 29.2116 35.3125 30.9375C35.3125 32.6635 33.9134 34.0625 32.1875 34.0625H4.6875C4.52174 34.0625 4.36277 34.1284 4.24556 34.2456C4.12835 34.3628 4.0625 34.5218 4.0625 34.6875C4.0625 34.8533 4.12835 35.0123 4.24556 35.1295C4.36277 35.2467 4.52174 35.3125 4.6875 35.3125H32.1875C34.6038 35.3125 36.5625 33.3538 36.5625 30.9375C36.5625 28.5213 34.6038 26.5625 32.1875 26.5625H8.35938C6.67656 26.5625 5.3125 25.1985 5.3125 23.5157C5.3125 21.8329 6.67656 20.4688 8.35938 20.4688H35.9375C36.1033 20.4688 36.2622 20.4029 36.3794 20.2857C36.4967 20.1685 36.5625 20.0095 36.5625 19.8438C36.5625 19.678 36.4967 19.5191 36.3794 19.4018C36.2622 19.2846 36.1033 19.2188 35.9375 19.2188H8.35938Z" fill="white"/>
</svg>
