<svg xmlns="http://www.w3.org/2000/svg" width="60" height="60" fill="none" viewBox="0 0 60 60"><path fill="#fff" fill-rule="evenodd" d="M57.659 20.163a4.57 4.57 0 0 0-3.255-1.344 4.57 4.57 0 0 0-3.255 1.344c-2.753 2.752-.315 6.621 1.464 9.446.4.634.778 1.233 1.071 1.77a.82.82 0 0 0 1.44 0c.25-.46.603-1.011.975-1.595 1.734-2.72 4.354-6.828 1.56-9.621m-2.943 8.739-.307.482q-.198-.319-.408-.65c-1.994-3.164-3.384-5.72-1.692-7.411a2.94 2.94 0 0 1 2.095-.864c.794 0 1.538.307 2.095.864 1.722 1.722.211 4.45-1.783 7.579m-3.98 3.265L39.13 37.44a12.63 12.63 0 0 0-8.248-3.805v-9.68a.82.82 0 1 0-1.64 0v9.68a12.64 12.64 0 0 0-8.249 3.805L9.384 32.167a.82.82 0 1 0-.678 1.493l11.179 5.08a12.6 12.6 0 0 0-2.493 7.537c0 6.985 5.683 12.668 12.669 12.668 6.985 0 12.668-5.683 12.668-12.668a12.6 12.6 0 0 0-2.493-7.538l11.18-5.079a.82.82 0 0 0-.68-1.493m-27.742 22.57a7.299 7.299 0 0 1 14.133 0 10.98 10.98 0 0 1-7.066 2.568c-2.687 0-5.152-.966-7.067-2.569m15.444-1.297a8.945 8.945 0 0 0-8.377-5.821 8.945 8.945 0 0 0-8.378 5.82 10.98 10.98 0 0 1-2.65-7.162c0-6.081 4.947-11.028 11.028-11.028 6.08 0 11.027 4.947 11.027 11.028 0 2.731-.998 5.234-2.65 7.163m-8.377-15.487a4.577 4.577 0 0 0-4.572 4.572 4.577 4.577 0 0 0 4.572 4.572 4.577 4.577 0 0 0 4.572-4.572 4.577 4.577 0 0 0-4.572-4.572m0 7.504a2.935 2.935 0 0 1-2.932-2.932 2.935 2.935 0 0 1 2.932-2.931 2.935 2.935 0 0 1 2.932 2.93 2.935 2.935 0 0 1-2.932 2.933m5.86-32.913h4.87a.82.82 0 0 0 .688-1.266l-1.652-2.551a.82.82 0 0 0-.689-.374h-3.216a.82.82 0 0 0-.82.82v2.551c0 .453.367.82.82.82m.821-2.551h1.95l.59.91h-2.54zm-20.885 12.44h2.865a3.89 3.89 0 0 0 3.317 1.86 3.89 3.89 0 0 0 3.316-1.86h9.141a3.89 3.89 0 0 0 3.317 1.86 3.89 3.89 0 0 0 3.316-1.86h3.135c.828 0 1.502-.674 1.502-1.503v-1.05c0-.634-.395-1.177-.952-1.397v-5.87c0-.434-.114-.822-.35-1.187l-2.842-4.388a2.15 2.15 0 0 0-1.833-.997H34V1.875a.82.82 0 0 0-.82-.82H15.857a.82.82 0 0 0-.82.82v16.748c-.41.268-.682.73-.682 1.256v1.051c0 .829.674 1.502 1.502 1.502m.139-1.641v-.774h2.173a4 4 0 0 0 0 .774zm6.043 1.86a2.25 2.25 0 0 1-2.248-2.247 2.25 2.25 0 0 1 2.248-2.248 2.25 2.25 0 0 1 2.247 2.248 2.25 2.25 0 0 1-2.247 2.248m0-6.136a3.89 3.89 0 0 0-3.317 1.861h-2.044v-2.493h15.681v2.493h-7.004a3.89 3.89 0 0 0-3.316-1.86m3.869 4.276a4 4 0 0 0 0-.774h8.036a4 4 0 0 0 0 .774zm11.905 1.86a2.25 2.25 0 0 1-2.248-2.247 2.25 2.25 0 0 1 2.248-2.248 2.25 2.25 0 0 1 2.247 2.248 2.25 2.25 0 0 1-2.247 2.248m6.312-1.86h-2.443a4 4 0 0 0 0-.774h2.443zM39.79 7.682c.199 0 .348.081.456.248l2.841 4.388a.5.5 0 0 1 .088.295v5.764H41.13a3.89 3.89 0 0 0-3.316-1.86 3.89 3.89 0 0 0-3.317 1.86H34V7.682zm-7.43-4.987v11.548H16.679V2.695zM12.976 29.86V19.64a.82.82 0 0 0-.82-.82H1.935a.82.82 0 0 0-.82.82v10.22c0 .453.366.82.82.82h10.22a.82.82 0 0 0 .82-.82m-6.58-9.4h1.3v1.773h-1.3zm4.939 8.58h-8.58v-8.58h2v2.593c0 .453.367.82.82.82h2.94a.82.82 0 0 0 .82-.82V20.46h2zm44.234-5.85c0 .646-.526 1.172-1.172 1.172a1.174 1.174 0 0 1-1.172-1.172c0-.645.527-1.171 1.172-1.171.646 0 1.172.526 1.172 1.171m-16.75-2.784a1.006 1.006 0 1 1-2.012 0 1.006 1.006 0 0 1 2.011 0m-15.775 0a1.006 1.006 0 1 1-2.011 0 1.006 1.006 0 0 1 2.011 0" clip-rule="evenodd"/></svg>