<svg xmlns="http://www.w3.org/2000/svg" width="60" height="60" fill="none" viewBox="0 0 60 60"><path fill="#fff" d="M15.938 31.875a1.877 1.877 0 0 0-1.876 1.875v19.688a1.877 1.877 0 0 0 1.876 1.874h3.844a4.687 4.687 0 0 0 9.186 0H43.22a4.687 4.687 0 0 0 9.185 0h2.907a2.815 2.815 0 0 0 2.813-2.812v-6.91a2.87 2.87 0 0 0-.507-1.615l-5.668-8.1a2.84 2.84 0 0 0-2.3-1.187h-8.4v-.938a1.877 1.877 0 0 0-1.875-1.875zm8.437 25.313a2.813 2.813 0 1 1 0-5.626 2.813 2.813 0 0 1 0 5.626m15-3.75H28.968a4.687 4.687 0 0 0-9.186 0h-3.844V33.75h23.437zm8.438 3.75a2.813 2.813 0 1 1 0-5.626 2.813 2.813 0 0 1 0 5.626m4.297-17.813 2.625 3.75h-8.797v-3.75zm-10.86-2.812h8.4a.95.95 0 0 1 .77.396l.378.541H45a.94.94 0 0 0-.937.938v5.624A.94.94 0 0 0 45 45h11.047l.027.038a1 1 0 0 1 .176.553V52.5a.94.94 0 0 1-.937.938h-2.908a4.687 4.687 0 0 0-9.185 0h-1.97zM1.875 37.5h10.313v1.875H1.874zm1.875 5.625h8.438V45H3.75zm1.875 5.625h6.563v1.875H5.625zm5.625-27.187a.94.94 0 0 0 .744-.368c.691-.902 6.756-8.926 6.756-12.757a7.5 7.5 0 0 0-15 0c0 3.831 6.064 11.855 6.756 12.757a.94.94 0 0 0 .744.367m0-18.75a5.63 5.63 0 0 1 5.625 5.624c0 2.387-3.564 7.784-5.625 10.618-2.061-2.834-5.625-8.231-5.625-10.617a5.63 5.63 0 0 1 5.625-5.626"/><path fill="#fff" d="M15.469 8.438a4.22 4.22 0 1 0-8.439 0 4.22 4.22 0 0 0 8.439 0m-6.563 0a2.344 2.344 0 1 1 4.688 0 2.344 2.344 0 0 1-4.688 0m39.844 15a.94.94 0 0 0 .744-.368c.691-.902 6.756-8.926 6.756-12.757a7.5 7.5 0 0 0-15 0c0 3.831 6.065 11.855 6.756 12.757a.94.94 0 0 0 .744.367m0-18.75a5.63 5.63 0 0 1 5.625 5.625c0 2.386-3.564 7.783-5.625 10.617-2.061-2.834-5.625-8.231-5.625-10.617a5.63 5.63 0 0 1 5.625-5.626"/><path fill="#fff" d="M52.969 10.313a4.22 4.22 0 1 0-8.439 0 4.22 4.22 0 0 0 8.439 0m-6.563 0a2.344 2.344 0 1 1 4.688 0 2.344 2.344 0 0 1-4.688 0M44.699 26.25q.99-.003 1.974-.115l-.21-1.863a16 16 0 0 1-1.768.103zm-1.75-1.982a12 12 0 0 1-1.7-.347l-.514 1.803a14 14 0 0 0 1.971.404zm-3.313-.95a11 11 0 0 1-1.496-.857l-1.051 1.553q.836.572 1.751 1.002zM17.767 20.36q-.89.258-1.83.579l.61 1.774q.894-.308 1.744-.553zm18.89 1.019q-.8-.602-1.675-1.09l-.898 1.647q.764.426 1.462.953zm-14.809-.064-.343-1.844q-.9.167-1.88.399l.434 1.823a37 37 0 0 1 1.789-.378m3.619-.481-.15-1.869c-.582.047-1.221.112-1.913.204l.247 1.859a35 35 0 0 1 1.816-.194m7.05.423.598-1.777a14 14 0 0 0-1.954-.497l-.32 1.848a11 11 0 0 1 1.676.426m-3.402-.587.044-1.875a25 25 0 0 0-1.947.042l.102 1.872c.731-.04 1.287-.052 1.8-.04"/></svg>