<svg width="40" height="40" viewBox="0 0 40 40" fill="none" xmlns="http://www.w3.org/2000/svg">
<path d="M38 3.33301H2C0.895469 3.33301 0 4.22848 0 5.33301V17.333C0 17.5098 0.0702351 17.6794 0.195255 17.8044C0.320274 17.9294 0.489837 17.9996 0.666641 17.9996C0.843445 17.9996 1.01301 17.9294 1.13803 17.8044C1.26305 17.6794 1.33328 17.5098 1.33328 17.333V5.33301C1.33328 5.1562 1.40352 4.98664 1.52854 4.86162C1.65356 4.7366 1.82312 4.66637 1.99992 4.66637H3.33328V9.99965C3.33328 11.4724 4.52719 12.6663 5.99992 12.6663H33.9999C35.4727 12.6663 36.6666 11.4724 36.6666 9.99965V4.66629H38C38.1768 4.66629 38.3464 4.73652 38.4714 4.86154C38.5964 4.98656 38.6666 5.15613 38.6666 5.33293V19.3329C38.6645 21.1729 37.1734 22.664 35.3333 22.6663H33.3333V21.3329C33.3333 19.8602 32.1394 18.6663 30.6666 18.6663H23.24C23.0632 18.6663 22.8936 18.7365 22.7686 18.8615C22.6436 18.9866 22.5734 19.1561 22.5734 19.3329C22.5734 19.5097 22.6436 19.6793 22.7686 19.8043C22.8936 19.9293 23.0632 19.9996 23.24 19.9996H30.6666C31.403 19.9996 32 20.5965 32 21.3329V22.6663H24.52C24.3432 22.6663 24.1736 22.7365 24.0486 22.8615C23.9236 22.9866 23.8534 23.1561 23.8534 23.3329C23.8534 23.5097 23.9236 23.6793 24.0486 23.8043C24.1736 23.9293 24.3432 23.9996 24.52 23.9996H35.3334C37.9095 23.9966 39.9971 21.909 40 19.3329V5.33293C40 4.2284 39.1046 3.33301 38 3.33301ZM35.3334 9.99965C35.3334 10.7361 34.7364 11.333 34 11.333H6C5.26359 11.333 4.66664 10.7361 4.66664 9.99965V4.66629H35.3333V9.99965H35.3334Z" fill="white"/>
<path d="M6.66664 9.99992H33.3333C33.7015 9.99992 33.9999 9.70148 33.9999 9.33328C33.9999 8.96508 33.7015 8.66664 33.3333 8.66664H6.66664C6.48984 8.66664 6.32027 8.73688 6.19525 8.8619C6.07023 8.98691 6 9.15648 6 9.33328C6 9.51009 6.07023 9.67965 6.19525 9.80467C6.32027 9.92969 6.48984 9.99992 6.66664 9.99992ZM6.66664 7.33328H33.3333C33.5101 7.33328 33.6796 7.26305 33.8047 7.13803C33.9297 7.01301 33.9999 6.84344 33.9999 6.66664C33.9999 6.48984 33.9297 6.32027 33.8047 6.19525C33.6796 6.07023 33.5101 6 33.3333 6H6.66664C6.48984 6 6.32027 6.07023 6.19525 6.19525C6.07023 6.32027 6 6.48984 6 6.66664C6 6.84344 6.07023 7.01301 6.19525 7.13803C6.32027 7.26305 6.48984 7.33328 6.66664 7.33328Z" fill="white"/>
<path d="M33.3331 17.3333C33.7013 17.3333 33.9998 17.0348 33.9998 16.6666C33.9998 16.2985 33.7013 16 33.3331 16C32.965 16 32.6665 16.2985 32.6665 16.6666C32.6665 17.0348 32.965 17.3333 33.3331 17.3333Z" fill="white"/>
<path d="M36.0001 17.3333C36.3683 17.3333 36.6668 17.0348 36.6668 16.6666C36.6668 16.2985 36.3683 16 36.0001 16C35.632 16 35.3335 16.2985 35.3335 16.6666C35.3335 17.0348 35.632 17.3333 36.0001 17.3333Z" fill="white"/>
<path d="M24 34.6666C24 34.8434 24.0702 35.013 24.1953 35.138C24.3203 35.263 24.4898 35.3333 24.6666 35.3333C24.8434 35.3333 25.013 35.263 25.138 35.138C25.2631 35.013 25.3333 34.8434 25.3333 34.6666C25.3364 34.4752 25.3819 34.2869 25.4666 34.1152C25.5514 33.9435 25.6732 33.7928 25.8233 33.674C26.0888 33.4344 26.301 33.1417 26.4463 32.815C26.5915 32.4882 26.6666 32.1346 26.6666 31.777C26.6666 31.4193 26.5915 31.0657 26.4463 30.7389C26.301 30.4122 26.0888 30.1195 25.8233 29.8799C25.671 29.7634 25.5475 29.6133 25.4626 29.4413C25.3776 29.2693 25.3334 29.0801 25.3334 28.8883C25.3334 28.6965 25.3776 28.5072 25.4626 28.3353C25.5475 28.1633 25.671 28.0132 25.8233 27.8966C26.0874 27.656 26.2987 27.3632 26.4439 27.0368C26.5891 26.7103 26.6649 26.3573 26.6666 26C26.6666 25.6318 26.3682 25.3334 26 25.3334C25.6318 25.3334 25.3334 25.6318 25.3334 26C25.3303 26.1912 25.2848 26.3794 25.2 26.5509C25.1153 26.7223 24.9934 26.8728 24.8434 26.9913C24.5779 27.2308 24.3657 27.5233 24.2205 27.85C24.0752 28.1766 24.0002 28.5302 24.0002 28.8877C24.0002 29.2452 24.0752 29.5987 24.2205 29.9253C24.3657 30.252 24.5779 30.5445 24.8434 30.784C24.9957 30.9007 25.1192 31.051 25.2041 31.2232C25.2891 31.3953 25.3333 31.5847 25.3333 31.7766C25.3333 31.9686 25.2891 32.158 25.2041 32.3301C25.1192 32.5023 24.9957 32.6525 24.8434 32.7693C24.5794 33.0102 24.3682 33.3031 24.2231 33.6297C24.0779 33.9562 24.002 34.3093 24 34.6666ZM28.6666 34.6666C28.6666 34.8434 28.7369 35.013 28.8619 35.138C28.9869 35.263 29.1565 35.3333 29.3333 35.3333C29.5101 35.3333 29.6797 35.263 29.8047 35.138C29.9297 35.013 29.9999 34.8434 29.9999 34.6666C30.003 34.4752 30.0485 34.2869 30.1333 34.1152C30.218 33.9435 30.3398 33.7928 30.4899 33.674C30.7554 33.4344 30.9677 33.1417 31.1129 32.815C31.2582 32.4882 31.3333 32.1346 31.3333 31.777C31.3333 31.4193 31.2582 31.0657 31.1129 30.7389C30.9677 30.4122 30.7554 30.1195 30.4899 29.8799C30.3376 29.7634 30.2142 29.6133 30.1292 29.4413C30.0443 29.2693 30.0001 29.0801 30.0001 28.8883C30.0001 28.6965 30.0443 28.5072 30.1292 28.3353C30.2142 28.1633 30.3376 28.0132 30.4899 27.8966C30.754 27.656 30.9654 27.3632 31.1105 27.0368C31.2557 26.7103 31.3315 26.3573 31.3333 26C31.3333 25.6318 31.0348 25.3334 30.6666 25.3334C30.2984 25.3334 30 25.6318 30 26C29.997 26.1912 29.9514 26.3794 29.8667 26.5509C29.7819 26.7223 29.6601 26.8728 29.51 26.9913C29.2446 27.2308 29.0324 27.5233 28.8871 27.85C28.7419 28.1766 28.6668 28.5302 28.6668 28.8877C28.6668 29.2452 28.7419 29.5987 28.8871 29.9253C29.0324 30.252 29.2446 30.5445 29.51 30.784C29.6624 30.9007 29.7858 31.051 29.8708 31.2232C29.9557 31.3953 29.9999 31.5847 29.9999 31.7766C29.9999 31.9686 29.9557 32.158 29.8708 32.3301C29.7858 32.5023 29.6624 32.6525 29.51 32.7693C29.2461 33.0102 29.0349 33.3032 28.8897 33.6297C28.7446 33.9562 28.6686 34.3093 28.6666 34.6666ZM32.6666 34.6666C32.6666 34.8434 32.7369 35.013 32.8619 35.138C32.9869 35.263 33.1565 35.3333 33.3333 35.3333C33.5101 35.3333 33.6796 35.263 33.8047 35.138C33.9297 35.013 33.9999 34.8434 33.9999 34.6666C34.003 34.4752 34.0485 34.2869 34.1333 34.1152C34.218 33.9435 34.3398 33.7928 34.4899 33.674C34.7554 33.4344 34.9677 33.1417 35.1129 32.815C35.2582 32.4882 35.3333 32.1346 35.3333 31.777C35.3333 31.4193 35.2582 31.0657 35.1129 30.7389C34.9677 30.4122 34.7554 30.1195 34.4899 29.8799C34.3376 29.7634 34.2142 29.6133 34.1292 29.4413C34.0443 29.2693 34.0001 29.0801 34.0001 28.8883C34.0001 28.6965 34.0443 28.5072 34.1292 28.3353C34.2142 28.1633 34.3376 28.0132 34.4899 27.8966C34.754 27.656 34.9654 27.3632 35.1105 27.0368C35.2557 26.7103 35.3315 26.3573 35.3333 26C35.3333 25.8232 35.2631 25.6536 35.138 25.5286C35.013 25.4036 34.8434 25.3334 34.6666 25.3334C34.4898 25.3334 34.3203 25.4036 34.1953 25.5286C34.0702 25.6536 34 25.8232 34 26C33.997 26.1912 33.9514 26.3794 33.8667 26.5509C33.7819 26.7223 33.6601 26.8728 33.51 26.9913C33.2446 27.2308 33.0324 27.5233 32.8871 27.85C32.7419 28.1766 32.6668 28.5302 32.6668 28.8877C32.6668 29.2452 32.7419 29.5987 32.8871 29.9253C33.0324 30.252 33.2446 30.5445 33.51 30.784C33.6624 30.9007 33.7858 31.051 33.8708 31.2232C33.9557 31.3953 33.9999 31.5847 33.9999 31.7766C33.9999 31.9686 33.9557 32.158 33.8708 32.3301C33.7858 32.5023 33.6624 32.6525 33.51 32.7693C33.2461 33.0102 33.0349 33.3032 32.8897 33.6297C32.7446 33.9562 32.6686 34.3093 32.6666 34.6666ZM11.3334 36.6666C17.5926 36.6666 22.6667 31.5925 22.6667 25.3333C22.6667 19.0741 17.5926 14 11.3334 14C5.07414 14 0 19.0741 0 25.3334C0.00695313 31.5897 5.07703 36.6597 11.3334 36.6666ZM11.3334 15.3334C16.8562 15.3334 21.3334 19.8105 21.3334 25.3334C21.3334 30.8562 16.8562 35.3334 11.3334 35.3334C5.81055 35.3334 1.33336 30.8562 1.33336 25.3334C1.33961 19.813 5.81305 15.3396 11.3334 15.3334Z" fill="white"/>
<path d="M7.83331 24.9618L10.2546 25.7478L8.75932 27.8058L5.11596 28.3831C5.02816 28.3953 4.94368 28.4249 4.86745 28.4702C4.79122 28.5154 4.72479 28.5754 4.67203 28.6467C4.61927 28.7179 4.58125 28.799 4.56019 28.8851C4.53913 28.9712 4.53545 29.0606 4.54938 29.1482C4.5633 29.2357 4.59454 29.3196 4.64127 29.3949C4.688 29.4703 4.74929 29.5355 4.82155 29.5869C4.8938 29.6382 4.97557 29.6747 5.06207 29.694C5.14858 29.7134 5.23808 29.7154 5.32534 29.6997L7.65135 29.3331L6.40003 31.0511C6.18354 31.349 6.24948 31.7659 6.54737 31.9824C6.84526 32.1989 7.26221 32.1329 7.4787 31.835L8.73339 30.1158L9.10135 32.4411C9.12609 32.5977 9.20586 32.7404 9.32634 32.8435C9.44682 32.9467 9.60011 33.0034 9.7587 33.0037C9.79401 33.0038 9.82925 33.0009 9.86401 32.995C10.0386 32.9675 10.1951 32.8717 10.2991 32.7289C10.4031 32.586 10.4461 32.4076 10.4187 32.233L9.84135 28.5897L11.3334 26.533L12.8287 28.5917L12.2514 32.235C12.2239 32.4096 12.2669 32.588 12.371 32.7309C12.475 32.8738 12.6315 32.9695 12.806 32.9971C12.8408 33.0029 12.8761 33.0058 12.9114 33.0058C13.0699 33.0055 13.2232 32.9487 13.3437 32.8456C13.4642 32.7424 13.544 32.5997 13.5687 32.4431L13.9367 30.1178L15.186 31.8371C15.2902 31.9804 15.4471 32.0764 15.6221 32.1041C15.7972 32.1317 15.976 32.0887 16.1193 31.9844C16.2626 31.8802 16.3587 31.7233 16.3863 31.5483C16.4139 31.3732 16.3709 31.1944 16.2667 31.0511L15.0153 29.3331L17.3414 29.7018C17.4577 29.7219 17.5773 29.7108 17.6879 29.6695C17.7985 29.6283 17.8962 29.5585 17.971 29.4671C18.0458 29.3757 18.095 29.2662 18.1135 29.1496C18.1321 29.033 18.1194 28.9135 18.0767 28.8035C18.0339 28.6934 17.9627 28.5967 17.8703 28.5232C17.7779 28.4497 17.6676 28.402 17.5507 28.3851L13.9074 27.8078L12.4121 25.7498L14.8334 24.9638L18.1181 26.6378C18.2227 26.6951 18.3407 26.7233 18.4599 26.7194C18.5791 26.7156 18.6951 26.6798 18.7958 26.6159C18.8965 26.552 18.9782 26.4622 19.0324 26.356C19.0866 26.2497 19.1113 26.1309 19.1039 26.0118C19.0965 25.8928 19.0573 25.7779 18.9904 25.6792C18.9235 25.5805 18.8313 25.5015 18.7235 25.4505L16.6268 24.3839L18.6502 23.7272C18.7666 23.6956 18.8723 23.6329 18.9559 23.5459C19.0395 23.4589 19.0979 23.3508 19.1249 23.2332C19.1519 23.1156 19.1465 22.9928 19.1092 22.8781C19.0719 22.7633 19.0042 22.6608 18.9132 22.5815C18.8223 22.5022 18.7115 22.4491 18.5928 22.4278C18.474 22.4065 18.3517 22.4178 18.2389 22.4606L16.2122 23.1179L17.2789 21.0179C17.3571 20.8606 17.3701 20.6788 17.3151 20.5119C17.26 20.3451 17.1413 20.2067 16.9848 20.1268C16.8283 20.047 16.6466 20.0322 16.4792 20.0855C16.3118 20.1389 16.1722 20.2562 16.0908 20.4119L14.4155 23.6999L12.0002 24.4799V21.9333L14.6082 19.3253C14.7202 19.198 14.7796 19.0329 14.7742 18.8634C14.7688 18.6939 14.6991 18.5329 14.5791 18.413C14.4592 18.2931 14.2981 18.2235 14.1286 18.2182C13.9591 18.2129 13.794 18.2724 13.6668 18.3846L11.9999 20.0511V17.9218C11.9999 17.745 11.9297 17.5754 11.8047 17.4504C11.6797 17.3254 11.5101 17.2551 11.3333 17.2551C11.1565 17.2551 10.9869 17.3254 10.8619 17.4504C10.7369 17.5754 10.6667 17.745 10.6667 17.9218V20.0497L8.99995 18.3831C8.93856 18.319 8.86498 18.2677 8.78352 18.2324C8.70206 18.1971 8.61437 18.1784 8.52559 18.1774C8.43682 18.1764 8.34874 18.1932 8.26652 18.2267C8.18431 18.2603 8.10963 18.3099 8.04685 18.3727C7.98407 18.4354 7.93446 18.5101 7.90093 18.5923C7.86741 18.6745 7.85064 18.7626 7.85161 18.8514C7.85258 18.9402 7.87128 19.0279 7.9066 19.1093C7.94192 19.1908 7.99315 19.2644 8.05729 19.3258L10.6666 21.9331V24.4797L8.24792 23.6944L6.5726 20.4064C6.4912 20.2507 6.35163 20.1334 6.18423 20.08C6.01682 20.0266 5.83512 20.0414 5.6786 20.1213C5.52207 20.2011 5.40339 20.3395 5.34833 20.5064C5.29327 20.6732 5.30629 20.8551 5.38456 21.0124L6.45456 23.1124L4.42792 22.455C4.34347 22.4229 4.25336 22.4082 4.16306 22.4119C4.07276 22.4156 3.98416 22.4376 3.90264 22.4766C3.82112 22.5156 3.74837 22.5708 3.68883 22.6388C3.62929 22.7068 3.58419 22.7861 3.55628 22.8721C3.52837 22.9581 3.51822 23.0488 3.52646 23.1388C3.53469 23.2288 3.56114 23.3162 3.60419 23.3956C3.64725 23.4751 3.706 23.545 3.7769 23.601C3.84779 23.6571 3.92934 23.6981 4.01659 23.7217L6.03995 24.3783L3.94331 25.445C3.79104 25.5282 3.67721 25.6675 3.62599 25.8333C3.57478 25.9991 3.59021 26.1783 3.66901 26.3329C3.74782 26.4874 3.88379 26.6052 4.04803 26.6611C4.21227 26.7171 4.39185 26.7067 4.54862 26.6324L7.83331 24.9618Z" fill="white"/>
</svg>
